<?xml version="1.0" encoding="UTF-8" standalone="no"?>
<!-- Created with Inkscape (http://www.inkscape.org/) -->

<svg
   width="74.938553mm"
   height="75.302101mm"
   viewBox="0 0 74.938553 75.302101"
   version="1.1"
   id="svg1"
   xml:space="preserve"
   inkscape:export-filename="datalinks.svg"
   inkscape:export-xdpi="95.431427"
   inkscape:export-ydpi="95.431427"
   xmlns:inkscape="http://www.inkscape.org/namespaces/inkscape"
   xmlns:sodipodi="http://sodipodi.sourceforge.net/DTD/sodipodi-0.dtd"
   xmlns="http://www.w3.org/2000/svg"
   xmlns:svg="http://www.w3.org/2000/svg"><sodipodi:namedview
     id="namedview1"
     pagecolor="#ffffff"
     bordercolor="#000000"
     borderopacity="0.25"
     inkscape:showpageshadow="2"
     inkscape:pageopacity="0.0"
     inkscape:pagecheckerboard="0"
     inkscape:deskcolor="#d1d1d1"
     inkscape:document-units="mm" /><defs
     id="defs1" /><g
     inkscape:label="Capa 1"
     inkscape:groupmode="layer"
     id="layer1"
     transform="translate(-0.2802803,-0.18586267)"><path
       style="fill:#000000"
       d="M 19.15183,56.613931 0.28028029,37.739911 19.057307,18.962891 37.834335,0.18586268 53.981486,16.583301 c 8.88093,9.01859 17.29244,17.5937 18.69225,19.0558 l 2.5451,2.65836 -18.59773,18.59525 -18.597731,18.59525 z m 24.698865,9.86968 5.816821,-5.82934 -2.138161,0.8662 c -1.176,0.47642 -3.47229,1.13653 -5.10289,1.46693 l -2.96471,0.60073 -3.1874,-0.20532 -3.18739,-0.20532 -2.293058,-0.67586 c -1.26118,-0.37172 -2.610555,-0.79805 -2.998611,-0.94739 l -0.705555,-0.27154 5.463787,5.51513 c 3.005087,3.03332 5.467507,5.51513 5.472067,5.51513 0.005,0 2.62585,-2.62321 5.8251,-5.82935 z m -1.59151,-6.34126 2.46944,-0.51668 2.98667,-1.47234 2.986671,-1.47234 2.6911,-2.6911 2.6911,-2.69109 1.47233,-2.98667 1.47234,-2.98667 0.51669,-2.46945 c 0.28418,-1.35819 0.51669,-3.50132 0.51669,-4.7625 0,-1.26118 -0.23251,-3.4043 -0.51669,-4.7625 l -0.51669,-2.46944 -1.47234,-2.98667 -1.47233,-2.98667 -2.6911,-2.6911 -2.6911,-2.69109 -2.986671,-1.47234 -2.98667,-1.47234 -2.46944,-0.516689 c -3.1392,-0.65682 -6.3858,-0.65682 -9.525,0 l -2.469444,0.516689 -2.98667,1.47234 -2.98667,1.47234 -2.691096,2.69109 -2.691096,2.6911 -1.472338,2.98667 -1.472338,2.98667 -0.516687,2.46944 c -0.656822,3.1392 -0.656822,6.3858 0,9.525 l 0.516687,2.46945 1.472338,2.98667 1.472338,2.98667 2.691096,2.69109 2.691096,2.6911 2.98667,1.47461 2.98667,1.47462 2.293055,0.49249 c 1.261179,0.27087 3.404309,0.50235 4.762499,0.51441 l 2.46945,0.0219 z m -8.99583,-1.43075 -2.293059,-0.49249 -2.968402,-1.46557 -2.968402,-1.46556 -2.365638,-2.36564 -2.365638,-2.36563 -1.463286,-2.96841 -1.463286,-2.9684 -0.516687,-2.46944 c -0.651487,-3.1137 -0.651487,-5.00019 0,-8.11389 l 0.516687,-2.46945 1.463286,-2.9684 1.463286,-2.9684 2.365638,-2.36564 2.365638,-2.36564 2.968402,-1.46328 2.968402,-1.46329 2.469449,-0.51669 c 3.1137,-0.65148 5.00018,-0.65148 8.11388,0 l 2.46945,0.51669 2.9684,1.46329 2.968401,1.46328 2.36564,2.36564 2.36564,2.36564 1.46329,2.9684 1.46328,2.9684 0.51669,2.46945 c 0.28418,1.35819 0.51669,3.18382 0.51669,4.05694 0,0.87313 -0.23251,2.69875 -0.51669,4.05695 l -0.51669,2.46944 -1.46328,2.9684 -1.46329,2.96841 -2.36564,2.36563 -2.36564,2.36564 -2.968401,1.46329 -2.9684,1.46328 -2.46945,0.51669 c -3.01911,0.6317 -5.28258,0.62633 -8.29027,-0.0196 z m 8.46666,-3.21109 c 1.06716,-0.29532 3.03735,-1.1114 4.37822,-1.81351 l 2.43794,-1.27657 1.689831,-1.68983 1.68983,-1.68983 1.43517,-2.91099 1.43517,-2.91099 0.52718,-2.55764 0.52719,-2.55764 -0.52719,-2.55764 -0.52718,-2.55764 -1.43517,-2.91098 -1.43517,-2.91099 -1.74595,-1.74595 -1.745941,-1.74594 -2.91099,-1.43517 -2.91099,-1.43518 -2.55764,-0.52718 -2.55764,-0.52718 -2.55764,0.52718 -2.557638,0.52718 -2.910989,1.43518 -2.910989,1.43517 -1.745945,1.74594 -1.745945,1.74595 -1.435171,2.91099 -1.435172,2.91098 -0.527184,2.55764 -0.527184,2.55764 0.527184,2.55764 0.527184,2.55764 1.435172,2.91099 1.435171,2.91099 1.745945,1.74594 1.745945,1.74595 2.910989,1.43711 2.910989,1.43712 2.293058,0.50019 2.29305,0.50019 1.41111,-0.1799 c 0.77612,-0.099 2.28424,-0.42153 3.35139,-0.71686 z M 24.443907,38.975461 v -9.34861 h 0.705556 0.705555 v -0.88195 -0.88194 h 0.878161 c 0.482988,0 1.7133,-0.31742 2.734028,-0.70538 l 1.855867,-0.70538 1.539468,-1.8e-4 1.539463,-1.7e-4 1.37095,0.77051 c 0.75403,0.42379 1.37095,0.90103 1.37095,1.06055 0,0.15951 0.65882,-0.18722 1.46404,-0.77052 l 1.46404,-1.06054 h 1.84883 1.84882 l 1.53783,0.6978 1.53783,0.69781 1.14653,0.008 1.14653,0.008 v 0.88194 0.88195 h 0.705551 0.70556 v 9.34861 9.34861 H 37.496685 24.443907 Z m 24.341668,7.40833 v -0.52917 H 37.496685 26.207796 v 0.52917 0.52917 h 11.288889 11.28889 z m -1.41111,-2.11667 v -0.52916 H 37.320295 27.26613 v 0.52916 0.52917 h 10.054165 10.05417 z m -10.94152,-8.20208 -0.005,-5.55625 -0.25918,-0.37323 c -0.14255,-0.20527 -0.65169,-0.64183 -1.13143,-0.97013 l -0.87224,-0.59692 -1.420811,0.0125 -1.42081,0.0125 -0.881944,0.50417 c -0.48507,0.27729 -1.318507,0.50979 -1.852084,0.51667 l -0.970139,0.0125 v 5.99722 5.99722 h 4.409722 4.409726 z m 10.94152,-0.44097 v -5.99722 l -0.97014,-0.0125 c -0.53358,-0.007 -1.36702,-0.23938 -1.85208,-0.51667 l -0.88195,-0.50417 -1.60872,-0.0125 -1.60873,-0.0125 -1.1253,1.1002 -1.1253,1.10019 v 5.42619 5.4262 h 4.58611 4.58611 z m 21.174021,-1.03416 c -1.91403,-2.05059 -4.45525,-4.68084 -5.64716,-5.84501 l -2.16711,-2.11666 0.70414,1.80344 c 1.00813,2.58204 1.81111,6.78751 1.81111,9.48544 v 2.3228 l -0.56114,2.71667 c -0.30863,1.49416 -0.94746,3.67028 -1.41962,4.83582 l -0.85848,2.11916 5.80915,-5.79666 5.80915,-5.79667 z M 13.72113,46.878931 c -0.275816,-0.66038 -0.754149,-2.42432 -1.062964,-3.91985 l -0.561481,-2.71916 v -2.3228 c 0,-2.69085 0.800968,-6.89421 1.807493,-9.48544 l 0.70052,-1.80344 -5.5726274,5.55474 -5.5726273,5.55474 5.2718663,5.28067 c 5.5859874,5.59532 5.7756614,5.74206 4.9898204,3.86054 z M 32.670671,12.894222 c 4.677794,-0.96622 9.996864,-0.50584 14.454144,1.25105 l 1.76973,0.69757 -3.5542,-3.80869 c -1.95481,-2.0947791 -4.44238,-4.6787891 -5.52793,-5.7422291 l -1.97371,-1.93354 -5.727262,5.74517 -5.727258,5.7451691 1.803442,-0.70051 c 0.991893,-0.38527 3.009263,-0.94957 4.483044,-1.25399 z"
       id="path1" /></g></svg>
